<svg xmlns="http://www.w3.org/2000/svg" viewBox="0 0 36 36"><defs><style>.cls-1{fill:#fff;}</style></defs><g id="Layer_2" data-name="Layer 2"><g id="Layer_1-2" data-name="Layer 1"><circle cx="18" cy="18" r="18"/><path class="cls-1" d="M18.9,7.4l2.58,5.23a1,1,0,0,0,.75.55L28,14a1,1,0,0,1,.56,1.71l-4.17,4.07a1,1,0,0,0-.29.88l1,5.75a1,1,0,0,1-1.45,1l-5.15-2.71a1,1,0,0,0-.94,0l-5.15,2.71a1,1,0,0,1-1.45-1l1-5.75a1,1,0,0,0-.29-.88L7.45,15.72A1,1,0,0,1,8,14l5.76-.83a1,1,0,0,0,.75-.55L17.1,7.4A1,1,0,0,1,18.9,7.4Z"/></g></g></svg>