<svg xmlns="http://www.w3.org/2000/svg" viewBox="0 0 70 80"><defs><style>.cls-1{fill:#fff;}</style></defs><g id="Layer_2" data-name="Layer 2"><g id="Layer_1-2" data-name="Layer 1"><path d="M36.07.69l9.07,20.47a1.19,1.19,0,0,0,1.2.69l22.37-2.42a1.15,1.15,0,0,1,1.06,1.83L56.48,39.32a1.14,1.14,0,0,0,0,1.36L69.77,58.74a1.15,1.15,0,0,1-1.06,1.83L46.34,58.15a1.19,1.19,0,0,0-1.2.69L36.07,79.31a1.17,1.17,0,0,1-2.14,0L24.86,58.84a1.19,1.19,0,0,0-1.2-.69L1.29,60.57A1.15,1.15,0,0,1,.23,58.74L13.52,40.68a1.14,1.14,0,0,0,0-1.36L.23,21.26a1.15,1.15,0,0,1,1.06-1.83l22.37,2.42a1.19,1.19,0,0,0,1.2-.69L33.93.69A1.17,1.17,0,0,1,36.07.69Z"/><path class="cls-1" d="M35.83,24.54l5.07,9.22a.94.94,0,0,0,.37.37l9.28,5a.93.93,0,0,1,0,1.64l-9.28,5a.94.94,0,0,0-.37.37l-5.07,9.22a1,1,0,0,1-1.66,0L29.1,46.24a.94.94,0,0,0-.37-.37l-9.28-5a.93.93,0,0,1,0-1.64l9.28-5a.94.94,0,0,0,.37-.37l5.07-9.22A1,1,0,0,1,35.83,24.54Z"/><ellipse cx="35" cy="40" rx="6.41" ry="6.37"/></g></g></svg>