<svg width="16" height="68" viewBox="0 0 16 68" fill="none" xmlns="http://www.w3.org/2000/svg">
<path d="M4.30764 13.4039C4.30184 13.3664 4.30184 13.3279 4.30764 13.2905C3.78768 13.2616 3.29161 12.9953 2.90461 12.5374C2.74805 12.3608 2.60007 12.1715 2.46155 11.9705C2.22715 11.6098 1.94324 11.3103 1.62466 11.0878C1.55986 11.0458 1.49177 11.0132 1.42159 10.9907C1.25716 10.9323 1.08726 10.9051 0.916992 10.9097V57.5215H4.30764V13.4039Z" fill="white"/>
<path d="M1.07129 10.0351C1.43205 10.0692 1.78318 10.2038 2.10143 10.43C2.41969 10.6561 2.69781 10.9687 2.91738 11.3469C3.0954 11.6714 3.32797 11.9375 3.59695 12.1243C3.86592 12.3111 4.16405 12.4137 4.46809 12.424C4.77319 12.4087 5.07144 12.3006 5.33943 12.1081C5.60743 11.9156 5.83786 11.644 6.01265 11.3145C6.24921 10.9167 6.55059 10.5937 6.89458 10.3695C7.23858 10.1452 7.61642 10.0254 8.00027 10.0189C8.38292 10.0278 8.75926 10.1487 9.10199 10.3728C9.44472 10.5969 9.74524 10.9186 9.98174 11.3145C10.1604 11.6401 10.3939 11.9068 10.6641 12.0937C10.9342 12.2805 11.2335 12.3825 11.5386 12.3916C11.8431 12.3789 12.1415 12.2753 12.4112 12.0888C12.6809 11.9022 12.9149 11.6375 13.0955 11.3145C13.315 10.9363 13.5932 10.6238 13.9114 10.3976C14.2297 10.1714 14.5808 10.0368 14.9416 10.0027L10.0187 3.32996H6.02496L1.07129 10.0351Z" fill="white"/>
<path d="M11.6924 57.5216H15.0769V10.8936C14.7752 10.9081 14.48 11.0126 14.2135 11.1992C13.947 11.3858 13.7162 11.6495 13.5385 11.9706C13.2278 12.4512 12.8387 12.8332 12.4 13.0881C12.1744 13.2071 11.9352 13.2755 11.6924 13.2905C11.6982 13.328 11.6982 13.3665 11.6924 13.4039V57.5216Z" fill="white"/>
<path d="M14.5165 61.0115H1.48315L2.91695 66.8339C2.93363 66.8844 2.9565 66.9309 2.98464 66.9716C2.98464 66.9716 2.98464 67.0283 3.02771 67.0444C3.07396 67.0901 3.1299 67.1156 3.18771 67.1173H12.812C12.8698 67.1156 12.9257 67.0901 12.972 67.0444C12.972 67.0444 12.972 66.9959 13.0151 66.9716C13.0432 66.9309 13.0661 66.8844 13.0827 66.8339L14.5165 61.0115Z" fill="white"/>
<path d="M15.0765 58.3877H0.923161C0.88113 58.3898 0.839823 58.4028 0.801605 58.4259C0.763386 58.449 0.729005 58.4818 0.700428 58.5224C0.671851 58.563 0.649639 58.6106 0.635063 58.6626C0.620487 58.7145 0.613832 58.7697 0.61548 58.825V59.6996C0.613832 59.7549 0.620487 59.8101 0.635063 59.862C0.649639 59.9139 0.671851 59.9615 0.700428 60.0022C0.729005 60.0428 0.763386 60.0756 0.801605 60.0987C0.839823 60.1218 0.88113 60.1348 0.923161 60.1369H15.0765C15.1185 60.1348 15.1598 60.1218 15.1981 60.0987C15.2363 60.0756 15.2707 60.0428 15.2992 60.0022C15.3278 59.9615 15.35 59.9139 15.3646 59.862C15.3792 59.8101 15.3858 59.7549 15.3842 59.6996V58.825C15.3858 58.7697 15.3792 58.7145 15.3646 58.6626C15.35 58.6106 15.3278 58.563 15.2992 58.5224C15.2707 58.4818 15.2363 58.449 15.1981 58.4259C15.1598 58.4028 15.1185 58.3898 15.0765 58.3877Z" fill="white"/>
<path d="M15.692 57.8614V10.4155C15.6906 10.2387 15.6627 10.064 15.6099 9.90139C15.5571 9.73881 15.4805 9.59153 15.3844 9.46799L10.8737 3.36214L8.61536 0.333501C8.4517 0.119871 8.23052 0 8 0C7.76948 0 7.5483 0.119871 7.38464 0.333501L5.12626 3.36214L0.615648 9.46799C0.519535 9.59153 0.442885 9.73881 0.390089 9.90139C0.337292 10.064 0.309385 10.2387 0.307967 10.4155V57.8614C0.21066 57.9871 0.133342 58.137 0.0805173 58.3025C0.0276929 58.4679 0.000419169 58.6456 0.000285387 58.825V59.6996C-0.00543885 60.0106 0.0751157 60.3136 0.226882 60.5521C0.378649 60.7906 0.591232 60.9481 0.824871 60.9953L2.33251 67.1254C2.38869 67.3744 2.50366 67.5934 2.66078 67.7507C2.81789 67.9079 3.00897 67.9953 3.20633 68H12.7937C12.991 67.9953 13.1821 67.9079 13.3392 67.7507C13.4963 67.5934 13.6113 67.3744 13.6675 67.1254L15.1751 60.9953C15.4088 60.9481 15.6214 60.7906 15.7731 60.5521C15.9249 60.3136 16.0054 60.0106 15.9997 59.6996V58.825C15.9996 58.6456 15.9723 58.4679 15.9195 58.3025C15.8667 58.137 15.7893 57.9871 15.692 57.8614ZM11.6922 13.2902C11.935 13.2752 12.1742 13.2068 12.3998 13.0878C12.8385 12.8329 13.2276 12.4509 13.5383 11.9703C13.7169 11.6447 13.9505 11.378 14.2206 11.1911C14.4907 11.0043 14.79 10.9023 15.0951 10.8932V57.5212H11.6922V13.4036C11.698 13.3662 11.698 13.3276 11.6922 13.2902ZM6.02469 3.36214H9.97531L14.929 10.0348C14.5682 10.069 14.2171 10.2036 13.8988 10.4298C13.5806 10.6559 13.3025 10.9685 13.0829 11.3467C12.9023 11.6696 12.6683 11.9344 12.3986 12.1209C12.1289 12.3075 11.8306 12.411 11.526 12.4237C11.2209 12.4085 10.9227 12.3004 10.6547 12.1079C10.3867 11.9154 10.1563 11.6438 9.98147 11.3143C9.74496 10.9184 9.44444 10.5967 9.10172 10.3726C8.75899 10.1485 8.38265 10.0276 8 10.0187C7.61615 10.0252 7.2383 10.145 6.89431 10.3693C6.55032 10.5935 6.24894 10.9165 6.01238 11.3143C5.83373 11.6399 5.60018 11.9066 5.33007 12.0935C5.05995 12.2803 4.7606 12.3823 4.45551 12.3914C4.15147 12.3811 3.85334 12.2785 3.58437 12.0917C3.31539 11.9049 3.08282 11.6388 2.9048 11.3143C2.68523 10.9361 2.40711 10.6235 2.08885 10.3974C1.7706 10.1712 1.41947 10.0366 1.05871 10.0025L6.02469 3.36214ZM0.923329 10.8932C1.09342 10.8927 1.26291 10.9199 1.42793 10.9742C1.49725 11.0004 1.5651 11.0328 1.631 11.0714C1.94676 11.3028 2.22818 11.6073 2.46174 11.9703C2.59872 12.1707 2.74681 12.3574 2.9048 12.529C3.28978 12.9922 3.78663 13.2618 4.30782 13.2902C4.30202 13.3276 4.30202 13.3662 4.30782 13.4036V57.5212H0.923329V10.8932ZM13.0829 66.842C13.0646 66.8888 13.0419 66.9324 13.0152 66.9716C13.0152 66.9716 13.0152 67.0282 12.9721 67.0444C12.9253 67.0888 12.8697 67.1141 12.8121 67.1173H3.18786C3.13027 67.1141 3.07465 67.0888 3.02787 67.0444C3.02787 67.0444 3.02787 66.9959 2.98479 66.9716C2.95811 66.9324 2.93537 66.8888 2.9171 66.842L1.48331 61.0115H14.5167L13.0829 66.842ZM15.3844 59.6996C15.386 59.7549 15.3793 59.8101 15.3648 59.862C15.3502 59.9139 15.328 59.9616 15.2994 60.0022C15.2708 60.0428 15.2364 60.0756 15.1982 60.0987C15.16 60.1218 15.1187 60.1348 15.0767 60.1369H0.923329C0.881298 60.1348 0.839991 60.1218 0.801773 60.0987C0.763554 60.0756 0.729173 60.0428 0.700596 60.0022C0.672019 59.9616 0.649807 59.9139 0.635231 59.862C0.620655 59.8101 0.614 59.7549 0.615648 59.6996V58.825C0.614 58.7697 0.620655 58.7145 0.635231 58.6626C0.649807 58.6107 0.672019 58.563 0.700596 58.5224C0.729173 58.4818 0.763554 58.449 0.801773 58.4259C0.839991 58.4028 0.881298 58.3898 0.923329 58.3877H15.0767C15.1187 58.3898 15.16 58.4028 15.1982 58.4259C15.2364 58.449 15.2708 58.4818 15.2994 58.5224C15.328 58.563 15.3502 58.6107 15.3648 58.6626C15.3793 58.7145 15.386 58.7697 15.3844 58.825V59.6996Z" fill="black"/>
</svg>
