<svg width="48" height="52" viewBox="0 0 48 52" fill="none" xmlns="http://www.w3.org/2000/svg">
<path d="M47.3247 52H26.7368C26.5527 52.0014 26.3745 51.9293 26.2362 51.7974C26.098 51.6656 26.0094 51.4831 25.9873 51.285L25.1104 43.3628L24.0612 33.9213C24.0612 33.7182 23.9787 33.7182 23.9563 33.9213L22.8995 43.3628L22.0226 51.285C22.0005 51.4831 21.9119 51.6656 21.7737 51.7974C21.6355 51.9293 21.4573 52.0014 21.2732 52H0.685248C0.557112 51.988 0.433968 51.9405 0.327661 51.8621C0.221355 51.7836 0.135463 51.6768 0.0782485 51.5519C0.0210341 51.427 -0.00557773 51.2883 0.000972964 51.1491C0.00752366 51.0098 0.0470164 50.8747 0.115652 50.7568L11.7699 25.5685L23.4316 0.412774C23.4791 0.290439 23.5589 0.186018 23.6608 0.112592C23.7628 0.0391662 23.8825 0 24.005 0C24.1274 0 24.2471 0.0391662 24.3491 0.112592C24.4511 0.186018 24.5308 0.290439 24.5783 0.412774L47.9018 50.7893C47.9636 50.907 47.9973 51.0395 47.9998 51.1749C48.0024 51.3103 47.9737 51.4442 47.9163 51.5645C47.859 51.6848 47.7748 51.7876 47.6715 51.8637C47.5682 51.9397 47.449 51.9866 47.3247 52Z" fill="black"/>
</svg>
