<svg xmlns="http://www.w3.org/2000/svg" viewBox="0 0 28.41 36"><defs><style>.cls-1{fill:none;}.cls-2{fill:#fff;}</style></defs><g id="Layer_2" data-name="Layer 2"><g id="Layer_1-2" data-name="Layer 1"><path class="cls-1" d="M8.83,5.78h0a1.4,1.4,0,0,1,.37,0A1.4,1.4,0,0,0,8.83,5.78Z"/><path class="cls-1" d="M9.2,5.82l.15.06Z"/><path class="cls-1" d="M11.32,7.05h0a.13.13,0,0,0,0,.06A.11.11,0,0,1,11.32,7.05Z"/><path class="cls-1" d="M19.18,5.78h0A1.46,1.46,0,0,0,18,6.35a2.26,2.26,0,0,1-.83.59A2.26,2.26,0,0,0,18,6.35,1.46,1.46,0,0,1,19.18,5.78Z"/><path class="cls-1" d="M10.29,6.65,10,6.35a2.08,2.08,0,0,0-.61-.47,2.08,2.08,0,0,1,.61.47C10.07,6.45,10.17,6.55,10.29,6.65Z"/><path class="cls-1" d="M16.69,7.05h0a.11.11,0,0,1,0,.06A.14.14,0,0,0,16.69,7.05Z"/><path class="cls-1" d="M17.64,35.5a.2.2,0,0,1-.11,0A.2.2,0,0,0,17.64,35.5Z"/><path class="cls-1" d="M19.18,31.84a.23.23,0,0,0,.23-.23A.23.23,0,0,1,19.18,31.84Z"/><path class="cls-1" d="M8.61,31.61a.22.22,0,0,0,.22.23A.22.22,0,0,1,8.61,31.61Z"/><path class="cls-1" d="M19.18,30.91a.24.24,0,0,1,.23.24A.23.23,0,0,0,19.18,30.91Z"/><path class="cls-1" d="M8.83,30.91a.23.23,0,0,0-.22.24A.23.23,0,0,1,8.83,30.91Z"/><path class="cls-1" d="M10.29,35.39l.05.06a.18.18,0,0,1-.05-.07Z"/><path class="cls-1" d="M17.67,35.45l0-.06h0A.18.18,0,0,1,17.67,35.45Z"/><path class="cls-1" d="M10.49,35.53a.21.21,0,0,1-.12,0A.21.21,0,0,0,10.49,35.53Z"/><path class="cls-2" d="M11.31,7.11a.13.13,0,0,1,0-.06,1.79,1.79,0,0,1-1-.4c-.12-.1-.22-.2-.32-.3a2.08,2.08,0,0,0-.61-.47h0L9.2,5.82h0a1.4,1.4,0,0,0-.37,0V30.45h2.48Z"/><path class="cls-2" d="M8.94,5.32a1.9,1.9,0,0,1,1.34.7,1.42,1.42,0,0,0,2.27,0,1.84,1.84,0,0,1,2.9,0,1.46,1.46,0,0,0,1.14.57A1.49,1.49,0,0,0,17.73,6a1.9,1.9,0,0,1,1.34-.7L15.45,1.79H12.56Z"/><path class="cls-2" d="M16.71,30.45h2.47V5.78A1.46,1.46,0,0,0,18,6.35a2.26,2.26,0,0,1-.83.59,1.6,1.6,0,0,1-.52.11.14.14,0,0,1,0,.06Z"/><path class="cls-2" d="M18.77,32.3H9.24l1,3.08a.18.18,0,0,0,.05.07l0,0a.21.21,0,0,0,.12,0h7a.2.2,0,0,0,.11,0l0,0a.18.18,0,0,0,0-.07Z"/><path class="cls-2" d="M19.18,30.91H8.83a.23.23,0,0,0-.22.24v.46a.22.22,0,0,0,.22.23H19.18a.23.23,0,0,0,.23-.23v-.46A.24.24,0,0,0,19.18,30.91Z"/><path d="M19.63,30.63V5.53A.74.74,0,0,0,19.42,5L16.11,1.79,14.47.19a.67.67,0,0,0-.93,0L11.9,1.79,8.59,5a.74.74,0,0,0-.21.51v25.1a.73.73,0,0,0-.22.52v.46a.67.67,0,0,0,.6.68l1.1,3.25a.68.68,0,0,0,.64.46h7a.67.67,0,0,0,.64-.46l1.1-3.25a.68.68,0,0,0,.61-.68v-.46A.7.7,0,0,0,19.63,30.63ZM16.69,7.05a1.6,1.6,0,0,0,.52-.11A2.26,2.26,0,0,0,18,6.35a1.46,1.46,0,0,1,1.14-.57V30.45H16.71V7.11A.11.11,0,0,0,16.69,7.05ZM12.56,1.79h2.89l3.62,3.53a1.9,1.9,0,0,0-1.34.7,1.49,1.49,0,0,1-1.14.57A1.46,1.46,0,0,1,15.45,6a1.84,1.84,0,0,0-2.9,0,1.42,1.42,0,0,1-2.27,0,1.9,1.9,0,0,0-1.34-.7Zm-3.73,4a1.4,1.4,0,0,1,.37,0h0a.33.33,0,0,1,.15,0h0a2,2,0,0,1,.61.47l.32.29a1.73,1.73,0,0,0,1,.41.11.11,0,0,0,0,.06V30.45H8.83Zm8.89,29.61,0,.06,0,0a.24.24,0,0,1-.12,0h-7a.24.24,0,0,1-.12,0l0,0-.05-.06-1-3.09h9.53Zm1.69-3.78a.23.23,0,0,1-.23.23H8.83a.22.22,0,0,1-.22-.23v-.46a.23.23,0,0,1,.22-.24H19.18a.23.23,0,0,1,.23.24Z"/><path class="cls-1" d="M.7,13.31h0A1.38,1.38,0,0,1,1,13.08,1.38,1.38,0,0,0,.7,13.31Z"/><path class="cls-1" d="M1,13.08,1.14,13Z"/><path class="cls-1" d="M3.36,12.44h0l0,.05Z"/><path class="cls-1" d="M8,6H8a1.47,1.47,0,0,0-.4,1.21,2.29,2.29,0,0,1-.17,1,2.29,2.29,0,0,0,.17-1A1.47,1.47,0,0,1,8,6Z"/><path class="cls-1" d="M2.35,12.89l-.44,0a1.92,1.92,0,0,0-.76.1,1.92,1.92,0,0,1,.76-.1Z"/><path class="cls-1" d="M7.16,8.64h0a.05.05,0,0,1,0,0A.1.1,0,0,0,7.16,8.64Z"/><path class="cls-1" d="M28,28.09a.24.24,0,0,1-.06.11A.24.24,0,0,0,28,28.09Z"/><path class="cls-1" d="M26.45,24.42a.24.24,0,0,0,0-.33A.24.24,0,0,1,26.45,24.42Z"/><path class="cls-1" d="M18.81,31.73a.23.23,0,0,0,.32,0A.23.23,0,0,1,18.81,31.73Z"/><path class="cls-1" d="M25.8,23.76a.23.23,0,0,1,.32,0A.22.22,0,0,0,25.8,23.76Z"/><path class="cls-1" d="M18.48,31.08a.22.22,0,0,0,0,.32A.22.22,0,0,1,18.48,31.08Z"/><path class="cls-1" d="M22.67,33.21a.12.12,0,0,0,.08,0Z"/><path class="cls-1" d="M27.94,28a.19.19,0,0,0,0-.08h0A.28.28,0,0,1,27.94,28Z"/><path class="cls-1" d="M22.91,33.18a.19.19,0,0,1-.1,0A.19.19,0,0,0,22.91,33.18Z"/><path class="cls-2" d="M3.39,12.5l0-.05a1.76,1.76,0,0,1-1,.44l-.44,0a1.92,1.92,0,0,0-.76.1h0L1,13.08H1a1.38,1.38,0,0,0-.29.23L18.15,30.76,19.9,29Z"/><path class="cls-2" d="M.46,12.91a1.89,1.89,0,0,1,1.44-.46,1.43,1.43,0,0,0,1.2-.4,1.44,1.44,0,0,0,.4-1.21A1.94,1.94,0,0,1,4,9.32a1.94,1.94,0,0,1,1.53-.53,1.46,1.46,0,0,0,1.21-.4,1.51,1.51,0,0,0,.4-1.21,2,2,0,0,1,.45-1.44l-5.06.07-2,2Z"/><path class="cls-2" d="M23.72,25.19l1.75-1.75L8,6a1.47,1.47,0,0,0-.4,1.21,2.29,2.29,0,0,1-.17,1,1.67,1.67,0,0,1-.29.44.1.1,0,0,1,0,0Z"/><path class="cls-2" d="M26.49,25l-6.74,6.74,2.92,1.44h.14a.19.19,0,0,0,.1,0h0l4.95-5h0a.24.24,0,0,0,.06-.11s0,0,0-.05a.28.28,0,0,0,0-.09Z"/><path class="cls-2" d="M25.8,23.76l-.29.29-1.62,1.62-3.5,3.5-1.62,1.62-.29.29a.22.22,0,0,0,0,.32l.33.33a.23.23,0,0,0,.32,0l7.32-7.32a.24.24,0,0,0,0-.33l-.33-.32A.23.23,0,0,0,25.8,23.76Z"/><path d="M25.92,23.25,8.16,5.49a.68.68,0,0,0-.5-.2L3,5.34l-2.29,0A.67.67,0,0,0,.08,6l0,2.28L0,12.94a.71.71,0,0,0,.21.51L18,31.2a.7.7,0,0,0,.2.52l.33.33a.69.69,0,0,0,.91.06l3.08,1.51a.67.67,0,0,0,.77-.12l5-5a.67.67,0,0,0,.13-.78l-1.52-3.07a.68.68,0,0,0-.06-.91l-.32-.33A.71.71,0,0,0,25.92,23.25ZM7.16,8.65a1.9,1.9,0,0,0,.29-.45,2.27,2.27,0,0,0,.17-1A1.47,1.47,0,0,1,8,6L25.47,23.44l-1.75,1.75L7.21,8.68A.05.05,0,0,0,7.16,8.65ZM.52,7.85l2-2,5.06-.07a2,2,0,0,0-.45,1.44,1.51,1.51,0,0,1-.4,1.21,1.46,1.46,0,0,1-1.21.4A1.94,1.94,0,0,0,4,9.32a1.94,1.94,0,0,0-.53,1.52,1.44,1.44,0,0,1-.4,1.21,1.43,1.43,0,0,1-1.2.4,1.89,1.89,0,0,0-1.44.46ZM.7,13.31a1.2,1.2,0,0,1,.3-.23H1A.46.46,0,0,1,1.14,13h0a1.92,1.92,0,0,1,.76-.1l.44,0a1.72,1.72,0,0,0,1-.45l0,.06L19.9,29l-1.75,1.76ZM27.93,28a.19.19,0,0,1,0,.08.43.43,0,0,0,0,.05.24.24,0,0,1-.06.11h0l-4.95,5h0a.24.24,0,0,1-.1,0s0,0-.06,0-.05,0-.08,0l-2.92-1.44L26.49,25Zm-1.48-3.87a.24.24,0,0,1,0,.33l-7.32,7.32a.23.23,0,0,1-.32,0l-.33-.33a.22.22,0,0,1,0-.32l7.32-7.32a.22.22,0,0,1,.32,0Z"/><path d="M14.43,3.54l3.63,8.18a.47.47,0,0,0,.48.28l9-1a.46.46,0,0,1,.42.73L22.6,19a.45.45,0,0,0,0,.54l5.31,7.22a.47.47,0,0,1-.42.74l-8.95-1a.48.48,0,0,0-.48.27L14.43,35a.46.46,0,0,1-.85,0L10,26.79a.48.48,0,0,0-.48-.27l-9,1a.47.47,0,0,1-.42-.74l5.31-7.22a.45.45,0,0,0,0-.54L.1,11.76A.46.46,0,0,1,.52,11l9,1a.47.47,0,0,0,.48-.28l3.63-8.18A.46.46,0,0,1,14.43,3.54Z"/><path class="cls-2" d="M14.34,13.07l2,3.69a.36.36,0,0,0,.15.15l3.71,2a.37.37,0,0,1,0,.66l-3.71,2a.54.54,0,0,0-.15.15l-2,3.69a.39.39,0,0,1-.67,0l-2-3.69a.54.54,0,0,0-.15-.15l-3.71-2a.37.37,0,0,1,0-.66l3.71-2a.36.36,0,0,0,.15-.15l2-3.69A.39.39,0,0,1,14.34,13.07Z"/><ellipse cx="14.01" cy="19.26" rx="2.56" ry="2.55"/></g></g></svg>